<svg width="23" height="23" viewBox="0 0 23 23" fill="none" xmlns="http://www.w3.org/2000/svg">
<path d="M3 9.73343C3 9.63107 3.10517 9.56444 3.19469 9.61008L10.4985 13.3346C10.5899 13.3812 10.6477 13.4768 10.6477 13.5813V22.8482C10.6477 22.9506 10.5425 23.0172 10.453 22.9716L3.1492 19.247C3.05778 19.2004 3 19.1049 3 19.0004V9.73343Z" fill="white"/>
<path d="M3 9.73343C3 9.63107 3.10517 9.56444 3.19469 9.61008L10.4985 13.3346C10.5899 13.3812 10.6477 13.4768 10.6477 13.5813V22.8482C10.6477 22.9506 10.5425 23.0172 10.453 22.9716L3.1492 19.247C3.05778 19.2004 3 19.1049 3 19.0004V9.73343Z" fill="white"/>
<path d="M19 9.74721C19 9.64485 18.8948 9.57822 18.8053 9.62387L11.5015 13.3484C11.4101 13.395 11.3523 13.4906 11.3523 13.5951V22.862C11.3523 22.9644 11.4575 23.031 11.547 22.9854L18.8508 19.2608C18.9422 19.2142 19 19.1187 19 19.0141V9.74721Z" fill="white"/>
<path d="M19 9.74721C19 9.64485 18.8948 9.57822 18.8053 9.62387L11.5015 13.3484C11.4101 13.395 11.3523 13.4906 11.3523 13.5951V22.862C11.3523 22.9644 11.4575 23.031 11.547 22.9854L18.8508 19.2608C18.9422 19.2142 19 19.1187 19 19.0141V9.74721Z" fill="white"/>
<path d="M10.6059 5.08085C10.8161 4.97305 11.1571 4.97305 11.3674 5.08085L18.2208 8.59445C18.4311 8.70226 18.4311 8.87704 18.2208 8.98485L11.3674 12.4984C11.1571 12.6063 10.8161 12.6063 10.6059 12.4984L3.75244 8.98485C3.54216 8.87704 3.54216 8.70226 3.75244 8.59445L10.6059 5.08085Z" fill="white"/>
<path d="M10.6059 5.08085C10.8161 4.97305 11.1571 4.97305 11.3674 5.08085L18.2208 8.59445C18.4311 8.70226 18.4311 8.87704 18.2208 8.98485L11.3674 12.4984C11.1571 12.6063 10.8161 12.6063 10.6059 12.4984L3.75244 8.98485C3.54216 8.87704 3.54216 8.70226 3.75244 8.59445L10.6059 5.08085Z" fill="white"/>
<path fill-rule="evenodd" clip-rule="evenodd" d="M5.82373 7.53667L8.51207 6.15842L16.1339 10.0589L13.4456 11.4371L5.82373 7.53667Z" fill="white"/>
<path fill-rule="evenodd" clip-rule="evenodd" d="M5.82373 7.53667L8.51207 6.15842L16.1339 10.0589L13.4456 11.4371L5.82373 7.53667Z" fill="black" fill-opacity="0.3"/>
<path fill-rule="evenodd" clip-rule="evenodd" d="M13.6653 12.2492V15.5859L16.3643 14.2053V10.8729L13.6653 12.2492Z" fill="white"/>
<path fill-rule="evenodd" clip-rule="evenodd" d="M13.6653 12.2492V15.5859L16.3643 14.2053V10.8729L13.6653 12.2492Z" fill="black" fill-opacity="0.3"/>
<rect x="19.0557" y="1" width="5" height="1.11111" transform="rotate(90 19.0557 1)" fill="white"/>
<rect x="16" y="2.94444" width="5" height="1.11111" fill="white"/>
</svg>
