<svg width="23" height="23" viewBox="0 0 23 23" fill="none" xmlns="http://www.w3.org/2000/svg">
    <rect x="3" y="3" width="14" height="16" rx="1" stroke="#FFD600" stroke-width="2"/>
    <line x1="5" y1="8" x2="15" y2="8" stroke="#FFD600" stroke-width="2"/>
    <line x1="5" y1="11" x2="15" y2="11" stroke="#FFD600" stroke-width="2"/>
    <line x1="5" y1="14" x2="15" y2="14" stroke="#FFD600" stroke-width="2"/>
    <path d="M12 14.917V17H14.0831L20.2267 10.8564L18.1436 8.77334L12 14.917ZM21.8376 9.2455C21.889 9.19411 21.9299 9.13307 21.9578 9.06587C21.9857 8.99867 22 8.92663 22 8.85388C22 8.78113 21.9857 8.7091 21.9578 8.6419C21.9299 8.5747 21.889 8.51366 21.8376 8.46227L20.5377 7.16245C20.4863 7.11095 20.4253 7.0701 20.3581 7.04222C20.2909 7.01435 20.2189 7 20.1461 7C20.0734 7 20.0013 7.01435 19.9341 7.04222C19.8669 7.0701 19.8059 7.11095 19.7545 7.16245L18.738 8.17898L20.821 10.262L21.8376 9.2455Z" fill="#FFF0A1"/>
</svg>
