<svg xmlns="http://www.w3.org/2000/svg" viewBox="0 0 748.15 390.11">
    <defs>
        <style>
            .cls-1{fill:#557535;}.cls-2{fill:#81a33e;}.cls-3,.cls-7{fill:#fff;}.cls-3{stroke:#666;stroke-miterlimit:10;strokeWidth:0.5px;}.cls-4{fill:#cadc46;}.cls-5{fill:#56622b;}.cls-6{fill:#1a1a1a;}.cls-8{fill:#87241b;}.cls-9{fill:#e05826;}.cls-10{fill:#0f335a;}.cls-11{fill:#4a8fcc;}.cls-12{fill:#236032;}.cls-13{fill:#308942;}.cls-14{fill:#614a9e;}.cls-15{fill:#7762aa;}
        </style>
    </defs>
    <g id="layer2" data-name="图层 4">
        <path class="cls-6"
              d="M575.36,340.49v-11.1H563l-21.8-10.9,31.3-15.64c1.78-.67,2.9-4.1,2.9-6.41v0h0v-11.3H562.74v.26a30,30,0,0,0-6.7-.75,28.41,28.41,0,0,0-13.43,3.32l-31.28,15.64-31.27-15.64a28.41,28.41,0,0,0-13.43-3.32,30,30,0,0,0-6.7.75v-.26H447.31v11.3h0v0c0,2.31,1.12,5.74,2.9,6.41l31.3,15.64-21.8,10.9h-12.4v11.15h0v.16h0c.14,6.46,8.73,11.67,19.31,11.67A28.41,28.41,0,0,0,480.06,349l31.27-15.63L542.61,349A28.41,28.41,0,0,0,556,352.37c10.58,0,19.17-5.21,19.31-11.67h0v-.21Z"
              transform="translate(-323.71 -21.45)"/>
        <path class="cls-4"
              d="M572.46,322.66,541.16,307l31.3-15.64c1.78-.67,2.9-4.1,2.9-6.41,0-6.53-8.65-11.82-19.32-11.82a28.41,28.41,0,0,0-13.43,3.32L511.33,292.1l-31.27-15.64a28.41,28.41,0,0,0-13.43-3.32c-10.67,0-19.32,5.29-19.32,11.82,0,2.31,1.12,5.74,2.9,6.41L481.51,307l-31.3,15.65c-1.78.67-2.9,4.1-2.9,6.4,0,6.53,8.65,11.83,19.32,11.83a28.41,28.41,0,0,0,13.43-3.33l31.27-15.63,31.28,15.63A28.41,28.41,0,0,0,556,340.89c10.67,0,19.32-5.3,19.32-11.83C575.36,326.76,574.24,323.33,572.46,322.66Z"
              transform="translate(-323.71 -21.45)"/>
        <path class="cls-7"
              d="M572.46,322.66,541.16,307l31.3-15.64c1.78-.67,2.9-4.1,2.9-6.41,0-6.53-8.65-11.82-19.32-11.82a28.41,28.41,0,0,0-13.43,3.32L511.33,292.1l-31.27-15.64a28.41,28.41,0,0,0-13.43-3.32c-10.67,0-19.32,5.29-19.32,11.82,0,2.31,1.12,5.74,2.9,6.41L481.51,307l-31.3,15.65c-1.78.67-2.9,4.1-2.9,6.4,0,6.53,8.65,11.83,19.32,11.83a28.41,28.41,0,0,0,13.43-3.33l31.27-15.63,31.28,15.63A28.41,28.41,0,0,0,556,340.89c10.67,0,19.32-5.3,19.32-11.83C575.36,326.76,574.24,323.33,572.46,322.66Z"
              transform="translate(-323.71 -21.45)"/>
    </g>
</svg>