<svg xmlns="http://www.w3.org/2000/svg" viewBox="0 0 748.15 390.11">
    <defs>
        <style>
            .cls-1{fill:#557535;}.cls-2{fill:#81a33e;}.cls-3,.cls-7{fill:#fff;}.cls-3{stroke:#666;stroke-miterlimit:10;strokeWidth:0.5px;}.cls-4{fill:#cadc46;}.cls-5{fill:#56622b;}.cls-6{fill:#1a1a1a;}.cls-8{fill:#87241b;}.cls-9{fill:#e05826;}.cls-10{fill:#0f335a;}.cls-11{fill:#4a8fcc;}.cls-12{fill:#236032;}.cls-13{fill:#308942;}.cls-14{fill:#614a9e;}.cls-15{fill:#7762aa;}
        </style>
    </defs>
    <g id="layer1" data-name="图层 3">
        <polygon class="cls-1" points="561.45 382.98 748.15 289.63 748.15 101.57 561.45 194.94 561.45 382.98"/>
        <polygon class="cls-2" points="561.45 194.94 186.7 7.53 186.7 195.42 561.45 382.94 561.45 194.94"/>
        <path class="cls-3" d="M1064.78,136" transform="translate(-323.71 -21.45)"/>
        <polygon class="cls-1" points="0 288.77 186.7 195.42 186.7 7.36 0 100.73 0 288.77"/>
        <polygon class="cls-4" points="560.46 0 373.19 93.7 561.45 186.94 746.58 94.26 560.46 0"/>
        <polygon class="cls-5" points="186.7 203.42 1.11 296.22 189.09 390.11 374.13 297.21 186.7 203.42"/>
    </g>
    <g id="layer2" data-name="图层 4">
        <path class="cls-6"
              d="M575.36,340.49v-11.1H563l-21.8-10.9,31.3-15.64c1.78-.67,2.9-4.1,2.9-6.41v0h0v-11.3H562.74v.26a30,30,0,0,0-6.7-.75,28.41,28.41,0,0,0-13.43,3.32l-31.28,15.64-31.27-15.64a28.41,28.41,0,0,0-13.43-3.32,30,30,0,0,0-6.7.75v-.26H447.31v11.3h0v0c0,2.31,1.12,5.74,2.9,6.41l31.3,15.64-21.8,10.9h-12.4v11.15h0v.16h0c.14,6.46,8.73,11.67,19.31,11.67A28.41,28.41,0,0,0,480.06,349l31.27-15.63L542.61,349A28.41,28.41,0,0,0,556,352.37c10.58,0,19.17-5.21,19.31-11.67h0v-.21Z"
              transform="translate(-323.71 -21.45)"/>
        <path class="cls-4"
              d="M572.46,322.66,541.16,307l31.3-15.64c1.78-.67,2.9-4.1,2.9-6.41,0-6.53-8.65-11.82-19.32-11.82a28.41,28.41,0,0,0-13.43,3.32L511.33,292.1l-31.27-15.64a28.41,28.41,0,0,0-13.43-3.32c-10.67,0-19.32,5.29-19.32,11.82,0,2.31,1.12,5.74,2.9,6.41L481.51,307l-31.3,15.65c-1.78.67-2.9,4.1-2.9,6.4,0,6.53,8.65,11.83,19.32,11.83a28.41,28.41,0,0,0,13.43-3.33l31.27-15.63,31.28,15.63A28.41,28.41,0,0,0,556,340.89c10.67,0,19.32-5.3,19.32-11.83C575.36,326.76,574.24,323.33,572.46,322.66Z"
              transform="translate(-323.71 -21.45)"/>
        <path class="cls-7"
              d="M572.46,322.66,541.16,307l31.3-15.64c1.78-.67,2.9-4.1,2.9-6.41,0-6.53-8.65-11.82-19.32-11.82a28.41,28.41,0,0,0-13.43,3.32L511.33,292.1l-31.27-15.64a28.41,28.41,0,0,0-13.43-3.32c-10.67,0-19.32,5.29-19.32,11.82,0,2.31,1.12,5.74,2.9,6.41L481.51,307l-31.3,15.65c-1.78.67-2.9,4.1-2.9,6.4,0,6.53,8.65,11.83,19.32,11.83a28.41,28.41,0,0,0,13.43-3.33l31.27-15.63,31.28,15.63A28.41,28.41,0,0,0,556,340.89c10.67,0,19.32-5.3,19.32-11.83C575.36,326.76,574.24,323.33,572.46,322.66Z"
              transform="translate(-323.71 -21.45)"/>
    </g>
    <g id="layer3" data-name="图层 5">
        <path class="cls-8"
              d="M865.54,84.73c-4.24-7.88-15.11-13.48-27.87-13.48s-23.62,5.6-27.86,13.48h-1.9v7.32c0,11.49,13.33,20.81,29.76,20.81s29.75-9.31,29.77-20.79h0V84.73Z"
              transform="translate(-323.71 -21.45)"/>
        <ellipse class="cls-9" cx="513.96" cy="63.56" rx="29.76" ry="20.8"/>
        <path class="cls-10"
              d="M867.9,138.53c-4.24-7.88-15.12-13.48-27.87-13.48s-23.62,5.6-27.86,13.48h-1.9v7.32c0,11.49,13.32,20.81,29.76,20.81s29.75-9.31,29.77-20.79h0v-7.34Z"
              transform="translate(-323.71 -21.45)"/>
        <ellipse class="cls-11" cx="516.32" cy="117.36" rx="29.76" ry="20.8"/>
        <path class="cls-12"
              d="M957.38,136.74c-4.24-7.88-15.11-13.49-27.86-13.49s-23.63,5.61-27.87,13.49h-1.89V144s0,.07,0,.1c0,11.49,13.33,20.8,29.77,20.8s29.75-9.3,29.76-20.79h0v-7.33Z"
              transform="translate(-323.71 -21.45)"/>
        <ellipse class="cls-13" cx="605.81" cy="115.56" rx="29.76" ry="20.8"/>
        <path class="cls-14"
              d="M953.56,78c-4.24-7.88-15.12-13.48-27.87-13.48S902.07,70.16,897.83,78h-1.9v7.32c0,11.49,13.32,20.81,29.76,20.81s29.75-9.31,29.77-20.79h0V78Z"
              transform="translate(-323.71 -21.45)"/>
        <ellipse class="cls-15" cx="601.98" cy="56.87" rx="29.76" ry="20.8"/>
    </g>
</svg>