<svg width="23" height="23" viewBox="0 0 23 23" fill="none" xmlns="http://www.w3.org/2000/svg">
<path d="M4 7.73343C4 7.63107 4.10517 7.56444 4.19469 7.61008L11.4985 11.3346C11.5899 11.3812 11.6477 11.4768 11.6477 11.5813V20.8482C11.6477 20.9506 11.5425 21.0172 11.453 20.9716L4.1492 17.247C4.05778 17.2004 4 17.1049 4 17.0004V7.73343Z" fill="white"/>
<path d="M4 7.73343C4 7.63107 4.10517 7.56444 4.19469 7.61008L11.4985 11.3346C11.5899 11.3812 11.6477 11.4768 11.6477 11.5813V20.8482C11.6477 20.9506 11.5425 21.0172 11.453 20.9716L4.1492 17.247C4.05778 17.2004 4 17.1049 4 17.0004V7.73343Z" fill="#7CADF7"/>
<path d="M20 7.74721C20 7.64485 19.8948 7.57822 19.8053 7.62387L12.5015 11.3484C12.4101 11.395 12.3523 11.4906 12.3523 11.5951V20.862C12.3523 20.9644 12.4575 21.031 12.547 20.9854L19.8508 17.2608C19.9422 17.2142 20 17.1187 20 17.0141V7.74721Z" fill="white"/>
<path d="M20 7.74721C20 7.64485 19.8948 7.57822 19.8053 7.62387L12.5015 11.3484C12.4101 11.395 12.3523 11.4906 12.3523 11.5951V20.862C12.3523 20.9644 12.4575 21.031 12.547 20.9854L19.8508 17.2608C19.9422 17.2142 20 17.1187 20 17.0141V7.74721Z" fill="#7CADF7"/>
<path d="M11.6059 3.08085C11.8161 2.97305 12.1571 2.97305 12.3674 3.08085L19.2208 6.59445C19.4311 6.70226 19.4311 6.87704 19.2208 6.98485L12.3674 10.4984C12.1571 10.6063 11.8161 10.6063 11.6059 10.4984L4.75244 6.98485C4.54216 6.87704 4.54216 6.70226 4.75244 6.59445L11.6059 3.08085Z" fill="white"/>
<path d="M11.6059 3.08085C11.8161 2.97305 12.1571 2.97305 12.3674 3.08085L19.2208 6.59445C19.4311 6.70226 19.4311 6.87704 19.2208 6.98485L12.3674 10.4984C12.1571 10.6063 11.8161 10.6063 11.6059 10.4984L4.75244 6.98485C4.54216 6.87704 4.54216 6.70226 4.75244 6.59445L11.6059 3.08085Z" fill="#7CADF7"/>
<path fill-rule="evenodd" clip-rule="evenodd" d="M6.82373 5.53666L9.51207 4.15841L17.1339 8.05886L14.4456 9.43711L6.82373 5.53666Z" fill="#D1EBFC"/>
<path fill-rule="evenodd" clip-rule="evenodd" d="M14.6653 10.2492V13.5859L17.3643 12.2053V8.87288L14.6653 10.2492Z" fill="#D1EBFC"/>
</svg>
