<svg width="23" height="23" viewBox="0 0 23 23" fill="none" xmlns="http://www.w3.org/2000/svg">
<path d="M20 9.74726C20 9.6449 19.8948 9.57827 19.8053 9.62391L12.5015 13.3484C12.4101 13.3951 12.3523 13.4906 12.3523 13.5951V22.862C12.3523 22.9644 12.4575 23.031 12.547 22.9854L19.8508 19.2609C19.9422 19.2142 20 19.1187 20 19.0142V9.74726Z" fill="white"/>
<path d="M20 9.74726C20 9.6449 19.8948 9.57827 19.8053 9.62391L12.5015 13.3484C12.4101 13.3951 12.3523 13.4906 12.3523 13.5951V22.862C12.3523 22.9644 12.4575 23.031 12.547 22.9854L19.8508 19.2609C19.9422 19.2142 20 19.1187 20 19.0142V9.74726Z" fill="#CBDC47"/>
<path d="M11.6061 5.08087C11.8164 4.97306 12.1573 4.97306 12.3676 5.08087L19.221 8.59446C19.4313 8.70226 19.4313 8.87705 19.221 8.98485L12.3676 12.4984C12.1573 12.6062 11.8164 12.6062 11.6061 12.4984L4.75268 8.98485C4.5424 8.87705 4.5424 8.70226 4.75268 8.59446L11.6061 5.08087Z" fill="white"/>
<path d="M11.6061 5.08087C11.8164 4.97306 12.1573 4.97306 12.3676 5.08087L19.221 8.59446C19.4313 8.70226 19.4313 8.87705 19.221 8.98485L12.3676 12.4984C12.1573 12.6062 11.8164 12.6062 11.6061 12.4984L4.75268 8.98485C4.5424 8.87705 4.5424 8.70226 4.75268 8.59446L11.6061 5.08087Z" fill="#CBDC47"/>
<path fill-rule="evenodd" clip-rule="evenodd" d="M4.19469 9.6101C4.10517 9.56445 4 9.63108 4 9.73344V19.0004C4 19.1049 4.05778 19.2004 4.1492 19.247L11.453 22.9716C11.5425 23.0172 11.6477 22.9506 11.6477 22.8482V13.5813C11.6477 13.4768 11.5899 13.3812 11.4985 13.3346L4.19469 9.6101ZM8.10901 16.2018L8.10898 14.0217L6.90033 13.5L6.90031 15.5783L5.22681 14.7152V16.0503L6.90029 16.9219L6.90027 19.2391L8.10905 19.7608L8.10903 17.5515L9.8747 18.4711V17.1125L8.10901 16.2018Z" fill="white"/>
<path fill-rule="evenodd" clip-rule="evenodd" d="M4.19469 9.6101C4.10517 9.56445 4 9.63108 4 9.73344V19.0004C4 19.1049 4.05778 19.2004 4.1492 19.247L11.453 22.9716C11.5425 23.0172 11.6477 22.9506 11.6477 22.8482V13.5813C11.6477 13.4768 11.5899 13.3812 11.4985 13.3346L4.19469 9.6101ZM8.10901 16.2018L8.10898 14.0217L6.90033 13.5L6.90031 15.5783L5.22681 14.7152V16.0503L6.90029 16.9219L6.90027 19.2391L8.10905 19.7608L8.10903 17.5515L9.8747 18.4711V17.1125L8.10901 16.2018Z" fill="#CBDC47"/>
<ellipse cx="16.2629" cy="14.1227" rx="1.04347" ry="1.04347" transform="rotate(45 16.2629 14.1227)" fill="#E25725"/>
<ellipse cx="14.1636" cy="17.091" rx="1.04347" ry="1.04347" transform="rotate(45 14.1636 17.091)" fill="#4790D6"/>
<ellipse cx="16.2629" cy="18.7562" rx="1.04347" ry="1.04347" transform="rotate(45 16.2629 18.7562)" fill="#318942"/>
<ellipse cx="18.4351" cy="15.8603" rx="1.04347" ry="1.04347" transform="rotate(45 18.4351 15.8603)" fill="#8F5BF8"/>
<rect x="11.5" y="2.00001" width="1.04347" height="6.99999" fill="#82A43E"/>
<ellipse cx="12" cy="2" rx="2" ry="2" fill="#CBDC47"/>
</svg>
