<svg fill="none" height="30" viewBox="0 0 105 30" width="105" xmlns="http://www.w3.org/2000/svg"><rect fill="#fff" height="30" rx="5" width="105"/><rect fill="#cbdc47" fill-opacity=".3" height="30" rx="5" width="105"/><path d="m93 21c.5304 0 1.0391.2107 1.4142.5858s.5858.8838.5858 1.4142-.2107 1.0391-.5858 1.4142-.8838.5858-1.4142.5858-1.0391-.2107-1.4142-.5858-.5858-.8838-.5858-1.4142c0-1.11.89-2 2-2zm-16-16h3.27l.94 2h14.79c.2652 0 .5196.10536.7071.29289.1875.18754.2929.44189.2929.70711 0 .17-.05.34-.12.5l-3.58 6.47c-.34.61-1 1.03-1.75 1.03h-7.45l-.9 1.63-.03.12c0 .0663.0263.1299.0732.1768s.1105.0732.1768.0732h11.58v2h-12c-.5304 0-1.0391-.2107-1.4142-.5858s-.5858-.8838-.5858-1.4142c0-.35.09-.68.24-.96l1.36-2.45-3.6-7.59h-2zm6 16c.5304 0 1.0391.2107 1.4142.5858s.5858.8838.5858 1.4142-.2107 1.0391-.5858 1.4142-.8838.5858-1.4142.5858-1.0391-.2107-1.4142-.5858-.5858-.8838-.5858-1.4142c0-1.11.89-2 2-2zm9-7 2.78-5h-12.64l2.36 5z" fill="#56622b"/><rect fill="#cbdc47" fill-opacity=".3" height="30" rx="5" width="70"/></svg>