<?xml version="1.0" standalone="no"?><!DOCTYPE svg PUBLIC "-//W3C//DTD SVG 1.1//EN" "http://www.w3.org/Graphics/SVG/1.1/DTD/svg11.dtd"><svg t="1678828847510" class="icon" viewBox="0 0 1024 1024" version="1.1" xmlns="http://www.w3.org/2000/svg" p-id="2262" width="16" height="16" xmlns:xlink="http://www.w3.org/1999/xlink"><path d="M115.851435 106.634876m28.364877 0l71.232097 0q28.364877 0 28.364877 28.364877l0 369.809751q0 28.364877-28.364877 28.364877l-71.232097 0q-28.364877 0-28.364877-28.364877l0-369.809751q0-28.364877 28.364877-28.364877Z" fill="#ffffff" p-id="2263"></path><path d="M318.4577 0h-277.250678A31.990463 31.990463 0 0 0 9.216559 31.990463v959.713885A31.990463 31.990463 0 0 0 41.207022 1023.694811h277.250678a31.990463 31.990463 0 0 0 31.990463-31.990463v-959.713885A31.990463 31.990463 0 0 0 318.4577 0zM286.467237 959.713885H73.197485V63.980926h213.269752z" fill="#ffffff" p-id="2264"></path><path d="M1011.584395 874.405984L668.433363 29.217956a32.203733 32.203733 0 0 0-42.65395-17.48812l-255.923703 106.634877a31.990463 31.990463 0 0 0-17.48812 42.65395l344.43065 842.842061a32.203733 32.203733 0 0 0 42.653951 17.48812l255.923703-106.634876A32.203733 32.203733 0 0 0 1011.584395 874.405984z m-268.719888 75.924032L424.239497 164.217709l197.274521-81.042506 319.904628 785.685768z" fill="#ffffff" p-id="2265"></path><path d="M480.028786 187.648681m26.23029-10.795282l65.871557-27.109955q26.230291-10.795282 37.025572 15.435009l140.7445 341.979878q10.795282 26.230291-15.435009 37.025573l-65.871556 27.109955q-26.230291 10.795282-37.025573-15.435009l-140.744499-341.979878q-10.795282-26.230291 15.435008-37.025573Z" fill="#ffffff" p-id="2266"></path></svg>