<!-- <svg t="1652794868051" class="icon" viewBox="0 0 1024 1024" version="1.1" xmlns="http://www.w3.org/2000/svg" p-id="11135" width="32" height="32"><path d="M709.6 210l0.4-0.2h0.2L512 96 313.9 209.8h-0.2l0.7 0.3L151.5 304v416L512 928l360.5-208V304l-162.9-94zM482.7 843.6L339.6 761V621.4L210 547.8V372.9l272.7 157.3v313.4zM238.2 321.5l134.7-77.8 138.9 79.7 139.1-79.9 135.2 78-273.9 158-274-158zM814 548.3l-128.8 73.1v139.1l-143.9 83V530.4L814 373.1v175.2z" p-id="11136" fill="#8a8a8a"></path></svg> -->
<svg t="1652795111881" class="icon" viewBox="0 0 1024 1024" version="1.1" xmlns="http://www.w3.org/2000/svg" p-id="15425" width="16" height="16">
  <path d="M289.28 758.4a32.64 32.64 0 0 1-21.12-8.32L15.36 522.24a30.72 30.72 0 0 1-10.88-23.68 35.84 35.84 0 0 1 10.88-23.68l256-222.72a32 32 0 1 1 42.24 48l-228.48 198.4L311.04 704a32 32 0 0 1 0 45.44 32 32 0 0 1-21.76 8.96zM731.52 758.4a32.64 32.64 0 0 1-23.68-10.88 32.64 32.64 0 0 1 0-45.44l225.92-203.52-223.36-198.4a32 32 0 0 1 0-45.44 31.36 31.36 0 0 1 44.8 0l256 222.72a31.36 31.36 0 0 1 0 47.36l-252.16 227.84a35.2 35.2 0 0 1-27.52 5.76zM441.6 866.56h-5.12a32.64 32.64 0 0 1-26.24-34.56L522.88 145.28a32.64 32.64 0 0 1 37.12-26.24 31.36 31.36 0 0 1 26.24 36.48L473.6 840.32a32 32 0 0 1-32 26.24z" fill="#bfbfbf" p-id="15426"></path>
</svg>