<svg fill="none" height="30" viewBox="0 0 33 30" width="33" xmlns="http://www.w3.org/2000/svg"><path d="m16.501 3.994 1.2612-1.29909c3.4859-3.590522 9.1375-3.590519 12.6234 0 3.4859 3.59052 3.4859 9.41189 0 13.00239l-13.8857 14.3027-12.62345-13.0024.00112-.0012-1.26318-1.3011c-3.485856-3.5905-3.485853-9.41189 0-13.00241 3.48586-3.590519 9.13751-3.59052 12.62341 0z" fill="#fff"/><path d="m16.501 3.994 1.2612-1.29909c3.4859-3.590522 9.1375-3.590519 12.6234 0 3.4859 3.59052 3.4859 9.41189 0 13.00239l-13.8857 14.3027-12.62345-13.0024.00112-.0012-1.26318-1.3011c-3.485856-3.5905-3.485853-9.41189 0-13.00241 3.48586-3.590519 9.13751-3.59052 12.62341 0z" fill="#cbdc47" fill-opacity=".6"/></svg>