<svg t="1652795222261" class="icon" viewBox="0 0 1024 1024" version="1.1" xmlns="http://www.w3.org/2000/svg" p-id="21193" width="16" height="16"><path d="M618.666667 998.4H213.333333c-55.466667 0-98.133333-42.666667-98.133333-98.133333V157.866667c0-55.466667 42.666667-98.133333 98.133333-98.133334h571.733334c55.466667 0 98.133333 42.666667 98.133333 98.133334v576c0 12.8-8.533333 21.333333-21.333333 21.333333s-21.333333-8.533333-21.333334-21.333333V157.866667c0-29.866667-25.6-55.466667-55.466666-55.466667H213.333333c-29.866667 0-55.466667 25.6-55.466666 55.466667V896c0 29.866667 25.6 55.466667 55.466666 55.466667h405.333334c12.8 0 21.333333 8.533333 21.333333 21.333333s-8.533333 25.6-21.333333 25.6z" fill="#bfbfbf" p-id="21194"></path><path d="M776.533333 998.4H682.666667c-12.8 0-21.333333-8.533333-21.333334-21.333333s8.533333-21.333333 21.333334-21.333334h93.866666c34.133333 0 64-29.866667 64-64v-85.333333c0-12.8 8.533333-21.333333 21.333334-21.333333s21.333333 8.533333 21.333333 21.333333v85.333333c0 55.466667-46.933333 106.666667-106.666667 106.666667z" fill="#bfbfbf" p-id="21195"></path><path d="M499.2 785.066667c-12.8 0-21.333333-8.533333-21.333333-21.333334v-264.533333c0-12.8 8.533333-21.333333 21.333333-21.333333s21.333333 8.533333 21.333333 21.333333v264.533333c0 8.533333-8.533333 21.333333-21.333333 21.333334zM499.2 392.533333c-12.8 0-21.333333-8.533333-21.333333-21.333333V294.4c0-12.8 8.533333-21.333333 21.333333-21.333333s21.333333 8.533333 21.333333 21.333333v76.8c0 12.8-8.533333 21.333333-21.333333 21.333333z" fill="#bfbfbf" p-id="21196"></path><path d="M499.2 413.866667c12.8 0 21.333333 8.533333 21.333333 21.333333s-8.533333 21.333333-21.333333 21.333333-21.333333-8.533333-21.333333-21.333333 8.533333-21.333333 21.333333-21.333333m0-42.666667c-34.133333 0-64 29.866667-64 64s29.866667 64 64 64 64-29.866667 64-64-29.866667-64-64-64zM669.866667 785.066667c-12.8 0-21.333333-8.533333-21.333334-21.333334v-51.2c0-12.8 8.533333-21.333333 21.333334-21.333333s21.333333 8.533333 21.333333 21.333333v51.2c0 12.8-8.533333 21.333333-21.333333 21.333334zM669.866667 648.533333c-12.8 0-21.333333-8.533333-21.333334-21.333333V294.4c0-12.8 8.533333-21.333333 21.333334-21.333333s21.333333 8.533333 21.333333 21.333333v332.8c0 12.8-8.533333 21.333333-21.333333 21.333333z" fill="#bfbfbf" p-id="21197"></path><path d="M669.866667 648.533333c12.8 0 21.333333 8.533333 21.333333 21.333334s-8.533333 21.333333-21.333333 21.333333-21.333333-8.533333-21.333334-21.333333 8.533333-21.333333 21.333334-21.333334m0-42.666666c-34.133333 0-64 29.866667-64 64s29.866667 64 64 64 64-29.866667 64-64-29.866667-64-64-64zM328.533333 785.066667c-12.8 0-21.333333-8.533333-21.333333-21.333334v-93.866666c0-12.8 8.533333-21.333333 21.333333-21.333334s21.333333 8.533333 21.333334 21.333334v93.866666c0 8.533333-8.533333 21.333333-21.333334 21.333334zM328.533333 605.866667c-12.8 0-21.333333-8.533333-21.333333-21.333334V294.4c0-12.8 8.533333-21.333333 21.333333-21.333333s21.333333 8.533333 21.333334 21.333333v290.133333c0 12.8-8.533333 21.333333-21.333334 21.333334z" fill="#bfbfbf" p-id="21198"></path><path d="M328.533333 605.866667c12.8 0 21.333333 8.533333 21.333334 21.333333s-8.533333 21.333333-21.333334 21.333333-21.333333-8.533333-21.333333-21.333333 8.533333-21.333333 21.333333-21.333333m0-42.666667c-34.133333 0-64 29.866667-64 64s29.866667 64 64 64 64-29.866667 64-64-29.866667-64-64-64z" fill="#bfbfbf" p-id="21199"></path></svg>