<svg fill="none" height="30" viewBox="0 0 30 30" width="30" xmlns="http://www.w3.org/2000/svg"><path d="m29.2505 13.6652-6.0362 5.4674 1.8082 8.1398c.0957.4256.0684.8709-.0785 1.2804s-.4068.765-.7473 1.0221c-.3405.257-.7464.4041-1.167.423s-.8373-.0913-1.1979-.3168l-6.8405-4.3061-6.82577 4.3061c-.3606.2255-.77727.3357-1.19789.3168-.42063-.0189-.82657-.166-1.16705-.423-.34048-.2571-.60041-.6126-.74728-1.0221-.14688-.4095-.17418-.8548-.0785-1.2804l1.80549-8.1315-6.037466-5.4757c-.319327-.2858-.550234-.6631-.6637646-1.0846-.1135303-.4215-.10463-.8684.0255846-1.2847.130215-.4162.375947-.7833.706382-1.0552.330434-.2719.730864-.4365 1.151064-.47314l7.95805-.71537 3.10635-7.6898c.1623-.403502.4359-.748167.7865-.990598.3505-.242432.7624-.371792 1.1837-.371792.4212 0 .8331.12936 1.1836.371792.3506.242431.6242.587096.7865.990598l3.1157 7.6898 7.9554.71537c.4202.03664.8206.20124 1.1511.47314.3304.2719.5761.639.7063 1.0552.1303.4163.1392.8632.0256 1.2847-.1135.4215-.3444.7988-.6637 1.0846z" fill="#fff"/><path d="m29.2505 13.6652-6.0362 5.4674 1.8082 8.1398c.0957.4256.0684.8709-.0785 1.2804s-.4068.765-.7473 1.0221c-.3405.257-.7464.4041-1.167.423s-.8373-.0913-1.1979-.3168l-6.8405-4.3061-6.82577 4.3061c-.3606.2255-.77727.3357-1.19789.3168-.42063-.0189-.82657-.166-1.16705-.423-.34048-.2571-.60041-.6126-.74728-1.0221-.14688-.4095-.17418-.8548-.0785-1.2804l1.80549-8.1315-6.037466-5.4757c-.319327-.2858-.550234-.6631-.6637646-1.0846-.1135303-.4215-.10463-.8684.0255846-1.2847.130215-.4162.375947-.7833.706382-1.0552.330434-.2719.730864-.4365 1.151064-.47314l7.95805-.71537 3.10635-7.6898c.1623-.403502.4359-.748167.7865-.990598.3505-.242432.7624-.371792 1.1837-.371792.4212 0 .8331.12936 1.1836.371792.3506.242431.6242.587096.7865.990598l3.1157 7.6898 7.9554.71537c.4202.03664.8206.20124 1.1511.47314.3304.2719.5761.639.7063 1.0552.1303.4163.1392.8632.0256 1.2847-.1135.4215-.3444.7988-.6637 1.0846z" fill="#cbdc47" fill-opacity=".6"/></svg>