<!-- <svg t="1666111491114" class="icon" viewBox="0 0 1024 1024" version="1.1" xmlns="http://www.w3.org/2000/svg" p-id="16845" width="16" height="16"><path d="M972.8 824.32c0 81.92-66.56 148.48-148.48 148.48S675.84 906.24 675.84 824.32c0-36.864 13.312-69.632 34.816-96.256L560.128 619.52c-13.312 10.24-29.696 15.36-48.128 15.36s-35.84-6.144-50.176-17.408L311.296 727.04c23.552 26.624 36.864 61.44 36.864 97.28 0 81.92-66.56 148.48-148.48 148.48S51.2 906.24 51.2 824.32 117.76 675.84 199.68 675.84c28.672 0 56.32 8.192 79.872 23.552l157.696-113.664c-4.096-10.24-7.168-21.504-7.168-32.768 0-37.888 26.624-69.632 61.44-78.848V346.112c-69.632-12.288-122.88-72.704-122.88-146.432C368.64 117.76 435.2 51.2 517.12 51.2S665.6 117.76 665.6 199.68c0 76.8-58.368 140.288-133.12 147.456v125.952c34.816 9.216 61.44 40.96 61.44 78.848 0 12.288-3.072 24.576-8.192 34.816l155.648 112.64 1.024 1.024c23.552-15.36 51.2-24.576 81.92-24.576 81.92 0 148.48 66.56 148.48 148.48z" p-id="16846" fill="#bfbfbf"></path></svg> -->
<svg t="1666539573616" class="icon" viewBox="0 0 1024 1024" version="1.1" xmlns="http://www.w3.org/2000/svg" p-id="17432" width="16" height="16"><path d="M225 159c53.572 0 97 43.428 97 97 0 16.587-4.163 32.202-11.502 45.856l95.456 113.76C431.003 401.227 460.04 393 491 393c30.23 0 58.628 7.844 83.27 21.609L737.932 219.56l49.027 41.138-163.622 195C647.501 485.188 662 522.9 662 564c0 36.887-11.68 71.046-31.543 98.981L740.4 776.831C753.26 770.535 767.717 767 783 767c53.572 0 97 43.428 97 97s-43.428 97-97 97-97-43.428-97-97c0-14.912 3.365-29.038 9.377-41.66l-111.07-115.016C557.474 724.827 525.425 735 491 735c-42.208 0-80.844-15.292-110.67-40.638l-95.42 74.55c3.3 9.759 5.09 20.214 5.09 31.088 0 53.572-43.428 97-97 97s-97-43.428-97-97 43.428-97 97-97c19.364 0 37.402 5.674 52.544 15.45l94.58-73.895C327.283 620.552 320 593.126 320 564c0-40.364 13.985-77.462 37.375-106.712l-94.093-112.135C251.537 350.203 238.595 353 225 353c-53.572 0-97-43.428-97-97s43.428-97 97-97z m558 673c-17.673 0-32 14.327-32 32 0 17.673 14.327 32 32 32 17.673 0 32-14.327 32-32 0-17.673-14.327-32-32-32z m-590-64c-17.673 0-32 14.327-32 32 0 17.673 14.327 32 32 32 17.673 0 32-14.327 32-32 0-17.673-14.327-32-32-32z m298-303c-54.676 0-99 44.324-99 99s44.324 99 99 99 99-44.324 99-99-44.324-99-99-99zM225 224c-17.673 0-32 14.327-32 32 0 17.673 14.327 32 32 32 17.673 0 32-14.327 32-32 0-17.673-14.327-32-32-32z" fill="#cdcdcd" p-id="17433"></path><path d="M800 63c-70.692 0-128 57.308-128 128 0 70.692 57.308 128 128 128 70.692 0 128-57.308 128-128 0-70.692-57.308-128-128-128z m0 72c30.928 0 56 25.072 56 56s-25.072 56-56 56-56-25.072-56-56 25.072-56 56-56z" fill="#cdcdcd" p-id="17434"></path></svg>