<svg id="レイヤー_1" data-name="レイヤー 1" xmlns="http://www.w3.org/2000/svg" viewBox="0 0 243.2 235.34"><defs><style>.cls-1{fill:#231815;}</style></defs><path class="cls-1" d="M229.1,80.4c-1.7-2.6-3.5-5-5.4-7.4a65.74,65.74,0,0,0-6.1-6.8,79.3,79.3,0,0,0-6.7-6.2c-2.3-2-4.7-3.8-7.2-5.6a124.84,124.84,0,0,0-11.6-7.2,98.87,98.87,0,0,0-12.4-5.7,98.49,98.49,0,0,0-13-4.2,121.9,121.9,0,0,0-13.4-2.6c-2.3-.3-4.6-.5-6.8-.7a50.7,50.7,0,0,0-6.8-.4c-2.3,0-4.6,0-6.9.1s-4.6.3-6.9.6-4.6.6-6.9,1-4.5.9-6.8,1.5-4.5,1.2-6.7,1.9-4.4,1.5-6.6,2.4L33.3,67.8c-1.8.7-3.6,1.6-5.3,2.4a48.49,48.49,0,0,0-4.9,2.9,51.51,51.51,0,0,0-4.5,3.2,34.23,34.23,0,0,0-4,3.6,57.77,57.77,0,0,0-5.2,5.9,44.32,44.32,0,0,0-4.1,6.5,47.57,47.57,0,0,0-3,7,64.14,64.14,0,0,0-1.7,7.3c-.2,1.3-.3,2.5-.4,3.8a25.49,25.49,0,0,0-.2,3.9c0,1.3.1,2.6.2,3.9s.3,2.6.5,3.9.6,2.5.9,3.8l1.2,3.9c.5,1.3,1,2.6,1.6,3.8s1.2,2.5,1.9,3.8a39.41,39.41,0,0,0,3.1,4.8q1.65,2.25,3.6,4.5c1.3,1.4,2.6,2.8,4,4.1s2.9,2.5,4.4,3.7a51.08,51.08,0,0,0,7.3,4.8,71.81,71.81,0,0,0,7.9,3.8,75.19,75.19,0,0,0,8.4,2.8c2.9.7,5.8,1.3,8.7,1.7,1.5.2,3,.3,4.5.4s3,.1,4.5.1,3-.1,4.5-.2,3-.3,4.5-.5,3-.5,4.5-.8,3-.7,4.4-1.1,2.9-.9,4.3-1.4,2.8-1.1,4.2-1.7l58-25.5a18.9,18.9,0,0,0,6.4-4.5,15.56,15.56,0,0,0,3.6-6.2,16.42,16.42,0,0,0,.6-7,18,18,0,0,0-2.6-7.1,20.25,20.25,0,0,0-5.5-5.8,23.86,23.86,0,0,0-15.2-4.6,22.65,22.65,0,0,0-8,1.8L69,128.3c-.6.2-1.1.4-1.7.6s-1.1.3-1.7.5l-1.7.3a9.7,9.7,0,0,1-1.7.1,22.6,22.6,0,0,1-2.6-.1,18.66,18.66,0,0,1-2.5-.4,23.35,23.35,0,0,1-2.5-.7,16,16,0,0,1-2.3-1,10.91,10.91,0,0,1-1.1-.6,6.73,6.73,0,0,1-1.1-.7c-.3-.2-.7-.5-1-.7s-.6-.5-.9-.8l-.9-.9a6.47,6.47,0,0,1-.8-.9,6.07,6.07,0,0,1-.7-1,10.54,10.54,0,0,1-.7-1.1c-.3-.5-.5-1-.8-1.5l-.6-1.5a8.33,8.33,0,0,1-.4-1.5,7.72,7.72,0,0,1-.2-1.5,8.1,8.1,0,0,1,0-2.2,17,17,0,0,1,.4-2.2,17.23,17.23,0,0,1,.7-2.1,19.83,19.83,0,0,1,1.1-2,5.5,5.5,0,0,1,.7-.9c.2-.3.5-.6.7-.9a6,6,0,0,1,.8-.8c.3-.3.6-.5.9-.8a5.5,5.5,0,0,1,.9-.7c.3-.2.7-.5,1-.7s.7-.4,1.1-.6a6.12,6.12,0,0,1,1.2-.5l66-27.6a51.73,51.73,0,0,1,5.1-1.8c1.7-.5,3.4-1,5.2-1.4a47.14,47.14,0,0,1,5.2-.9c1.8-.2,3.5-.3,5.3-.4a69.47,69.47,0,0,1,7.9.2,53.89,53.89,0,0,1,7.9,1.2c2.6.6,5.2,1.3,7.7,2.1s4.9,1.9,7.3,3c1.2.6,2.3,1.2,3.5,1.8s2.3,1.3,3.4,2.1a37.12,37.12,0,0,1,3.2,2.3,36.12,36.12,0,0,1,3,2.5,37.06,37.06,0,0,1,2.9,2.7c.9.9,1.8,1.9,2.7,2.9a37.62,37.62,0,0,1,2.5,3.1c.8,1.1,1.6,2.2,2.3,3.3a41.72,41.72,0,0,1,2.6,4.6,30.53,30.53,0,0,1,2,4.6,42.61,42.61,0,0,1,1.5,4.7c.4,1.6.7,3.1,1,4.7a42.4,42.4,0,0,1,.5,7.1,41.52,41.52,0,0,1-.7,7,40.08,40.08,0,0,1-1.8,6.8,37.33,37.33,0,0,1-3,6.4,30.49,30.49,0,0,1-1.9,3,31.55,31.55,0,0,1-2.2,2.9c-.8.9-1.6,1.9-2.4,2.8a22.26,22.26,0,0,1-2.7,2.6,33.57,33.57,0,0,1-2.9,2.4c-1,.8-2.1,1.5-3.2,2.3a39.72,39.72,0,0,1-3.5,2c-1.2.6-2.4,1.3-3.7,1.8L79.7,203.6l36.4,54.9a22.86,22.86,0,0,0,6.2,6.2,25.45,25.45,0,0,0,7.9,3.5,24.85,24.85,0,0,0,8.6.6,22.35,22.35,0,0,0,8.3-2.6,21.2,21.2,0,0,0,6.2-5.2,18.54,18.54,0,0,0,3.8-14.3,20,20,0,0,0-2.7-7.5c-.1-.1-.1-.2-.2-.3s-.1-.2-.2-.3-.1-.2-.2-.3-.1-.2-.2-.3L142,220.8l53-24.5c3-1.4,5.8-2.9,8.6-4.5s5.3-3.4,7.8-5.2a79.81,79.81,0,0,0,7-5.8,72.34,72.34,0,0,0,6.1-6.3,82.76,82.76,0,0,0,7.6-10.3,72.18,72.18,0,0,0,5.6-11.1,79.49,79.49,0,0,0,3.7-11.7,82,82,0,0,0,1.7-12.1c.1-2,.1-4.1.1-6.2s-.2-4.1-.4-6.2-.6-4.1-.9-6.2-.9-4.1-1.5-6.2-1.2-4.1-2-6.1-1.6-4.1-2.5-6.1-1.9-4-3-6c-1.3-2-2.5-4-3.8-5.9" transform="translate(0 -33.6)"/></svg>