<svg id="图层_2" data-name="图层 2" xmlns="http://www.w3.org/2000/svg" viewBox="0 0 113.17 113.17"><defs><style>.cls-1{fill:none;stroke:#7dae4f;stroke-miterlimit:10;strokeWidth:2.5px;}.cls-2{fill:#935487;}.cls-3{fill:#2f83ac;}.cls-4{fill:#95afc7;}.cls-5{fill:#d4ca4d;}.cls-6{fill:#e0b34c;}.cls-7{fill:#db9853;}.cls-8{fill:#d0783e;}.cls-9{fill:#c83d4e;}</style></defs><circle class="cls-1" cx="56.58" cy="56.58" r="55.33"/><path class="cls-2" d="M251.17,399.79A48.08,48.08,0,0,1,222.56,388a3,3,0,0,1-.11-4.4l31-31a.5.5,0,0,1,.85.36v43.91A3,3,0,0,1,251.17,399.79Z" transform="translate(-199.42 -291.31)"/><path class="cls-3" d="M289.28,388a48.06,48.06,0,0,1-28.6,11.86,3,3,0,0,1-3.19-3V353a.5.5,0,0,1,.86-.35l31,31A3,3,0,0,1,289.28,388Z" transform="translate(-199.42 -291.31)"/><path class="cls-4" d="M307.9,352.72a48,48,0,0,1-11.84,28.6,3,3,0,0,1-4.4.12l-31-31a.49.49,0,0,1,.35-.85H304.9A3,3,0,0,1,307.9,352.72Z" transform="translate(-199.42 -291.31)"/><path class="cls-5" d="M296.12,314.61A48.11,48.11,0,0,1,308,343.21a3,3,0,0,1-3,3.19H261.06a.5.5,0,0,1-.35-.86l31-31.05A3,3,0,0,1,296.12,314.61Z" transform="translate(-199.42 -291.31)"/><path class="cls-6" d="M260.83,296a48,48,0,0,1,28.61,11.84,3,3,0,0,1,.11,4.4l-31,31a.49.49,0,0,1-.85-.35V299A3,3,0,0,1,260.83,296Z" transform="translate(-199.42 -291.31)"/><path class="cls-7" d="M222.72,307.77a48,48,0,0,1,28.6-11.85,3,3,0,0,1,3.19,3v43.88a.5.5,0,0,1-.86.35L222.6,312.13A3,3,0,0,1,222.72,307.77Z" transform="translate(-199.42 -291.31)"/><path class="cls-8" d="M204.1,343.05a48.08,48.08,0,0,1,11.84-28.6,3,3,0,0,1,4.4-.11l31,31a.5.5,0,0,1-.35.86H207.1A3,3,0,0,1,204.1,343.05Z" transform="translate(-199.42 -291.31)"/><path class="cls-9" d="M215.88,381.17A48.11,48.11,0,0,1,204,352.57a3,3,0,0,1,3-3.19h43.87a.5.5,0,0,1,.35.86l-31,31.05A3,3,0,0,1,215.88,381.17Z" transform="translate(-199.42 -291.31)"/></svg>